<?xml version="1.0" encoding="UTF-8" standalone="no"?>
<svg
   xmlns:dc="http://purl.org/dc/elements/1.1/"
   xmlns:cc="http://creativecommons.org/ns#"
   xmlns:rdf="http://www.w3.org/1999/02/22-rdf-syntax-ns#"
   xmlns:svg="http://www.w3.org/2000/svg"
   xmlns="http://www.w3.org/2000/svg"
   xmlns:sodipodi="http://sodipodi.sourceforge.net/DTD/sodipodi-0.dtd"
   xmlns:inkscape="http://www.inkscape.org/namespaces/inkscape"
   sodipodi:docname="logo-airport.svg"
   inkscape:version="1.0 (4035a4fb49, 2020-05-01)"
   id="svg19"
   version="1.1"
   viewBox="0 0 26.458332 17.991656"
   height="68"
   width="100">
  <defs
     id="defs13" />
  <sodipodi:namedview
     inkscape:window-maximized="1"
     inkscape:window-y="-8"
     inkscape:window-x="1912"
     inkscape:window-height="1057"
     inkscape:window-width="1920"
     borderlayer="true"
     units="px"
     showgrid="false"
     inkscape:document-rotation="0"
     inkscape:current-layer="layer1"
     inkscape:document-units="mm"
     inkscape:cy="-31.654997"
     inkscape:cx="67.272764"
     inkscape:zoom="2.8"
     inkscape:pageshadow="2"
     inkscape:pageopacity="0.0"
     borderopacity="1.0"
     bordercolor="#666666"
     pagecolor="#ffffff"
     id="base" />
  <metadata
     id="metadata16">
    <rdf:RDF>
      <cc:Work
         rdf:about="">
        <dc:format>image/svg+xml</dc:format>
        <dc:type
           rdf:resource="http://purl.org/dc/dcmitype/StillImage" />
        <dc:title></dc:title>
      </cc:Work>
    </rdf:RDF>
  </metadata>
  <g
     id="layer1"
     inkscape:groupmode="layer"
     inkscape:label="Laag 1">
    <path
       id="path35"
       d="m 2.8785994,16.726667 v -0.444868 h 10.6856526 10.68565 v 0.444867 0.444868 H 13.564252 2.8785994 Z M 5.2426426,11.450141 C 4.6452809,11.359628 4.2262703,11.170027 4.0254042,10.899351 3.8287817,10.6344 3.8690563,10.209949 4.1224113,9.8770291 4.168661,9.8162519 4.0326277,9.6350536 3.1537289,8.5867499 2.5913594,7.9159867 2.1354675,7.3645627 2.1406367,7.361364 2.2147187,7.315471 4.3748807,6.3677255 4.4046784,6.3680065 c 0.022798,2.06e-4 0.7938062,0.275434 1.7133572,0.6115932 l 1.671917,0.6111972 1.608789,-0.7343527 C 10.283576,6.4525465 11.008278,6.1089785 11.009188,6.0929555 c 7.97e-4,-0.01602 -1.1352244,-1.134031 -2.5247404,-2.484461 -1.389519,-1.35043 -2.518855,-2.461559 -2.509638,-2.469175 0.0092,-0.0076 0.834783,-0.04718 1.834593,-0.0879 l 1.817832,-0.07405 3.0793654,1.487627 c 1.693651,0.818195 3.092716,1.487626 3.109037,1.487626 0.01629,0 0.922239,-0.397795 2.013151,-0.883994 2.543696,-1.13367 2.917455,-1.256978 3.959425,-1.306253 1.046331,-0.04947 2.005665,0.238644 2.577351,0.774077 0.226062,0.211722 0.37005,0.507237 0.37005,0.759462 0,0.477534 -0.467879,0.99979 -1.280511,1.429335 -0.373018,0.197172 -13.316115,5.9864435 -13.6741164,6.1162475 -0.617813,0.224003 -1.557994,0.43772 -2.420594,0.550238 -0.607316,0.07922 -1.768986,0.111266 -2.11775,0.05842 z m 1.941126,-0.930684 C 8.1475036,10.395664 9.0106266,10.184771 9.7005106,9.9045269 10.53645,9.5649599 22.859348,4.0324785 23.161686,3.8610085 c 0.312006,-0.176955 0.646659,-0.470094 0.646659,-0.566441 0,-0.07573 -0.234901,-0.258026 -0.496238,-0.385091 -0.532323,-0.258828 -1.326062,-0.338663 -2.052499,-0.206438 -0.699952,0.127403 -0.864651,0.193218 -4.004065,1.599982 l -1.452835,0.651015 -3.195017,-1.541622 -3.1950154,-1.541623 -0.668974,0.03468 -0.668975,0.03468 2.2590524,2.198945 c 1.242478,1.209423 2.258853,2.210374 2.258611,2.22434 -6.85e-4,0.03759 -4.6902604,2.1654939 -4.7718514,2.1652208 C 7.7821786,8.528529 7.0208836,8.2615038 6.1287416,7.9352674 5.2365996,7.6090299 4.4785003,7.3421103 4.4440789,7.3421103 c -0.083315,0 -0.8148334,0.3254165 -0.8148334,0.362481 0,0.015968 0.4075259,0.5147449 0.9056148,1.1084185 l 0.9056173,1.0794095 -0.2984783,0.2674497 -0.2984784,0.26745 0.131931,0.04901 c 0.3467667,0.128773 1.3841017,0.149051 2.2083147,0.04317 z"
       style="fill:#ffffff;stroke-width:0.0432529" />
  </g>
</svg>
